<svg xmlns="http://www.w3.org/2000/svg" width="320" height="239.999" viewBox="0 0 320 239.999">
  <path id="icon" d="M288,240H32a31.815,31.815,0,0,0-2.515-12.456,31.9,31.9,0,0,0-6.858-10.171,31.885,31.885,0,0,0-10.172-6.858A31.8,31.8,0,0,0,0,208V152H.009a31.781,31.781,0,0,0,12.446-2.514,31.9,31.9,0,0,0,10.172-6.858,31.9,31.9,0,0,0,6.858-10.172A31.8,31.8,0,0,0,32,120a31.8,31.8,0,0,0-2.515-12.455,31.9,31.9,0,0,0-6.858-10.172,31.9,31.9,0,0,0-10.172-6.858A31.8,31.8,0,0,0,0,88V32H.009a31.782,31.782,0,0,0,12.446-2.514,31.9,31.9,0,0,0,10.172-6.858,31.9,31.9,0,0,0,6.858-10.172A31.8,31.8,0,0,0,32,0H288a31.809,31.809,0,0,0,2.515,12.456,31.9,31.9,0,0,0,6.858,10.172,31.9,31.9,0,0,0,10.171,6.858A31.8,31.8,0,0,0,320,32V88h-.009A32,32,0,1,0,320,152v56h-.009A31.971,31.971,0,0,0,288,240ZM64,48A16,16,0,0,0,48,64V176a16,16,0,0,0,16,16H256a16,16,0,0,0,16-16V64a16,16,0,0,0-16-16ZM246,182H74a16,16,0,0,1-16-16V74A16,16,0,0,1,74,58H246a16,16,0,0,1,16,16v92a16,16,0,0,1-16,16ZM133.1,103.759a19.368,19.368,0,0,0-7.258,1.412,19.578,19.578,0,0,0-6.092,3.874,17.459,17.459,0,0,0,0,25.908,19.578,19.578,0,0,0,6.092,3.874,19.368,19.368,0,0,0,7.258,1.412,18.516,18.516,0,0,0,8.8-2.274,15.549,15.549,0,0,0,6.462-6.558l-6.48-4.08a10.9,10.9,0,0,1-3.2,3.534,9.343,9.343,0,0,1-5.436,1.7,9.621,9.621,0,0,1-7.386-2.994,12.315,12.315,0,0,1,0-15.132,9.621,9.621,0,0,1,7.386-2.994,9.434,9.434,0,0,1,5.454,1.668,10.114,10.114,0,0,1,3.186,3.612l6.48-4.032a15.142,15.142,0,0,0-6.462-6.714A18.359,18.359,0,0,0,133.1,103.759Zm91.344.24v7.68h9.216V140h9.265v-28.32h9.12V104Zm-31.2,0v36h26.784v-7.68H202.5v-6.961h13.68v-7.727H202.5v-5.953h16.7V104ZM165.5,124.544h0L177.592,140h10.752L172.36,119.551,188.344,104H176.536L163.48,116.287V104h-9.264v36h9.264V126.223l2.015-1.679ZM100.167,104v36h9.265V104ZM68.44,104v7.68h9.216V140h9.264v-28.32H96.04V104Z" transform="translate(0 0)" fill="#f9a825"/>
</svg>
